<?xml version="1.0" encoding="utf-8"?>
<!-- Generator: Adobe Illustrator 24.3.0, SVG Export Plug-In . SVG Version: 6.00 Build 0)  -->
<svg version="1.1" id="图层_1" xmlns="http://www.w3.org/2000/svg" xmlns:xlink="http://www.w3.org/1999/xlink" x="0px" y="0px"
	 viewBox="0 0 1024 1024" style="enable-background:new 0 0 1024 1024;" xml:space="preserve">
<style type="text/css">
	.st0{fill:#3632D8;}
</style>
<g>
	<path class="st0" d="M267.88,324.8c14.64,10.14,34.73,6.48,44.86-8.16c44.07-63.66,118.55-101.67,199.23-101.67
		c80.71,0,155.2,38.03,199.27,101.72c6.26,9.05,16.32,13.9,26.54,13.9c6.33,0,12.72-1.86,18.32-5.73
		c14.64-10.13,18.3-30.22,8.17-44.86c-27.04-39.08-64.07-71.64-107.1-94.14c-21.81-11.41-45.06-20.21-69.1-26.16
		c-24.73-6.12-50.33-9.22-76.1-9.22c-25.76,0-51.36,3.1-76.08,9.21c-24.03,5.94-47.28,14.74-69.08,26.14
		c-43.01,22.49-80.04,55.03-107.09,94.09C249.59,294.58,253.24,314.66,267.88,324.8z"/>
	<path class="st0" d="M865.1,526.93c-6.04-17.52-14.83-33.9-26.14-48.67c-11.17-14.6-24.51-27.28-39.66-37.68
		c-15.39-10.57-32.27-18.52-50.16-23.65c-17.12-4.9-34.97,5-39.87,22.12c-4.9,17.12,5,34.97,22.12,39.87
		c46.3,13.26,78.64,56.2,78.64,104.42c0,59.88-48.72,108.6-108.6,108.6h-66.28V550.95c0-17.3-14.02-31.32-31.32-31.32h-91.77h-0.11
		h-91.77c-17.3,0-31.32,14.02-31.32,31.32v141.01h-66.28c-59.88,0-108.6-48.72-108.6-108.6c0-48.26,32.36-91.21,78.7-104.44
		c17.12-4.89,27.04-22.74,22.15-39.86c-4.89-17.12-22.74-27.04-39.86-22.15c-17.91,5.12-34.79,13.07-50.2,23.63
		c-15.16,10.4-28.51,23.07-39.69,37.68c-11.31,14.77-20.11,31.15-26.16,48.68c-6.25,18.13-9.42,37.13-9.42,56.45
		c0,23.35,4.58,46.02,13.62,67.38c8.72,20.62,21.2,39.12,37.08,55.01c15.89,15.89,34.39,28.36,55.01,37.08
		c21.36,9.03,44.03,13.62,67.38,13.62h66.28v117.06L512,761.25l123.15,112.25V756.45h66.28c23.35,0,46.02-4.58,67.38-13.62
		c20.62-8.72,39.12-21.2,55.01-37.08c15.89-15.89,28.36-34.39,37.08-55.01c9.03-21.36,13.62-44.03,13.62-67.38
		C874.52,564.04,871.35,545.06,865.1,526.93z"/>
	<path class="st0" d="M613.63,310.97c-30.35-19.35-65.5-29.58-101.64-29.58c-36.13,0-71.26,10.22-101.61,29.56
		c-29.5,18.8-53.2,45.33-68.53,76.71c-7.82,16-1.18,35.31,14.81,43.12c4.56,2.23,9.38,3.28,14.13,3.28
		c11.93,0,23.4-6.65,28.99-18.09c21.13-43.24,64.12-70.09,112.2-70.09c48.11,0,91.11,26.88,112.22,70.14
		c5.59,11.45,17.06,18.11,29,18.11c4.74,0,9.57-1.05,14.12-3.27c16-7.81,22.64-27.11,14.83-43.12
		C666.83,356.32,643.14,329.78,613.63,310.97z"/>
</g>
</svg>
